<?xml version="1.0" encoding="utf-8"?>
<!-- Generator: Adobe Illustrator 24.0.0, SVG Export Plug-In . SVG Version: 6.00 Build 0)  -->
<svg version="1.1" id="Layer_1" xmlns="http://www.w3.org/2000/svg" xmlns:xlink="http://www.w3.org/1999/xlink" x="0px" y="0px"
	 viewBox="0 0 256 256" style="enable-background:new 0 0 256 256;" xml:space="preserve">
<style type="text/css">
	.st0{fill:#382B73;}
	.st1{fill:#291B4A;}
	.st2{fill:#ED9ABC;}
	.st3{fill:#E54890;}
	.st4{fill:#D3D3D3;}
	.st5{fill:#EBE7F2;}
	.st6{fill:#F9B087;}
	.st7{fill:#FF8639;}
	.st8{fill:#65C1D6;}
	.st9{fill:#149CB2;}
</style>
<g>
	<g>
		<g>
			<g>
				<g>
					
						<ellipse transform="matrix(0.7071 -0.7071 0.7071 0.7071 -53.0193 128)" class="st0" cx="128" cy="128" rx="119.4" ry="119.4"/>
				</g>
			</g>
		</g>
	</g>
	<g>
		<g>
			<g>
				<g>
					<path class="st1" d="M67.543,208.198h120.913c4.246,0,7.701-3.455,7.701-7.701v-75.183h5.734c4.246,0,7.701-3.455,7.701-7.701
						V98.177c0-2.472-1.198-4.809-3.204-6.251c0,0,0,0,0,0l-73.891-53.141c-2.689-1.934-6.303-1.934-8.992,0L49.612,91.926
						c-2.006,1.443-3.204,3.78-3.204,6.251v19.437c0,4.246,3.455,7.701,7.701,7.701h5.734v75.183
						C59.843,204.744,63.297,208.198,67.543,208.198z M54.109,120.314c-1.489,0-2.701-1.211-2.701-2.701V98.177
						c0-0.867,0.42-1.687,1.124-2.192l73.892-53.141c0.471-0.339,1.023-0.509,1.576-0.509c0.552,0,1.105,0.169,1.577,0.509
						l73.891,53.141c0.704,0.506,1.124,1.326,1.124,2.192v19.437c0,1.489-1.211,2.701-2.701,2.701h-8.234
						c-1.381,0-2.5,1.119-2.5,2.5v77.683c0,1.489-1.211,2.701-2.701,2.701H67.543c-1.489,0-2.701-1.211-2.701-2.701v-77.683
						c0-1.381-1.119-2.5-2.5-2.5H54.109z"/>
				</g>
			</g>
		</g>
		<g>
			<g>
				<g>
					<path class="st1" d="M81.637,89.555c-3.714,0-6.735,3.021-6.735,6.735v35.647c0,3.714,3.021,6.736,6.735,6.736h35.648
						c3.714,0,6.735-3.021,6.735-6.736V96.29c0-3.714-3.021-6.735-6.735-6.735H81.637z M119.02,96.29v35.647
						c0,0.957-0.778,1.736-1.735,1.736H81.637c-0.957,0-1.735-0.779-1.735-1.736V96.29c0-0.957,0.778-1.735,1.735-1.735h35.648
						C118.242,94.555,119.02,95.333,119.02,96.29z"/>
				</g>
			</g>
		</g>
		<g>
			<g>
				<g>
					<path class="st1" d="M89.312,101.05c-1.381,0-2.5,1.119-2.5,2.5s1.119,2.5,2.5,2.5h10.149c1.381,0,2.5-1.119,2.5-2.5
						s-1.119-2.5-2.5-2.5H89.312z"/>
				</g>
			</g>
		</g>
		<g>
			<g>
				<g>
					<path class="st1" d="M89.312,111.614c-1.381,0-2.5,1.119-2.5,2.5s1.119,2.5,2.5,2.5h20.299c1.381,0,2.5-1.119,2.5-2.5
						s-1.119-2.5-2.5-2.5H89.312z"/>
				</g>
			</g>
		</g>
		<g>
			<g>
				<g>
					<path class="st1" d="M89.312,122.177c-1.381,0-2.5,1.119-2.5,2.5s1.119,2.5,2.5,2.5h20.299c1.381,0,2.5-1.119,2.5-2.5
						s-1.119-2.5-2.5-2.5H89.312z"/>
				</g>
			</g>
		</g>
		<g>
			<g>
				<g>
					<path class="st1" d="M131.98,96.29v35.647c0,3.714,3.021,6.736,6.735,6.736h35.648c3.714,0,6.735-3.021,6.735-6.736V96.29
						c0-3.714-3.021-6.735-6.735-6.735h-35.648C135.001,89.555,131.98,92.576,131.98,96.29z M136.98,96.29
						c0-0.957,0.778-1.735,1.735-1.735h35.648c0.957,0,1.735,0.778,1.735,1.735v35.647c0,0.957-0.778,1.736-1.735,1.736h-35.648
						c-0.957,0-1.735-0.779-1.735-1.736V96.29z"/>
				</g>
			</g>
		</g>
		<g>
			<g>
				<g>
					<path class="st1" d="M143.89,103.55c0,1.381,1.119,2.5,2.5,2.5h10.149c1.381,0,2.5-1.119,2.5-2.5s-1.119-2.5-2.5-2.5H146.39
						C145.009,101.05,143.89,102.169,143.89,103.55z"/>
				</g>
			</g>
		</g>
		<g>
			<g>
				<g>
					<path class="st1" d="M143.89,114.114c0,1.381,1.119,2.5,2.5,2.5h20.298c1.381,0,2.5-1.119,2.5-2.5s-1.119-2.5-2.5-2.5H146.39
						C145.009,111.614,143.89,112.733,143.89,114.114z"/>
				</g>
			</g>
		</g>
		<g>
			<g>
				<g>
					<path class="st1" d="M143.89,124.677c0,1.381,1.119,2.5,2.5,2.5h20.298c1.381,0,2.5-1.119,2.5-2.5s-1.119-2.5-2.5-2.5H146.39
						C145.009,122.177,143.89,123.296,143.89,124.677z"/>
				</g>
			</g>
		</g>
		<g>
			<g>
				<g>
					<path class="st1" d="M81.637,145.464c-3.714,0-6.735,3.021-6.735,6.736v35.647c0,3.714,3.021,6.735,6.735,6.735h35.648
						c3.714,0,6.735-3.021,6.735-6.735V152.2c0-3.714-3.021-6.736-6.735-6.736H81.637z M119.02,152.2v35.647
						c0,0.957-0.778,1.735-1.735,1.735H81.637c-0.957,0-1.735-0.778-1.735-1.735V152.2c0-0.957,0.778-1.736,1.735-1.736h35.648
						C118.242,150.464,119.02,151.243,119.02,152.2z"/>
				</g>
			</g>
		</g>
		<g>
			<g>
				<g>
					<path class="st1" d="M89.312,156.96c-1.381,0-2.5,1.119-2.5,2.5s1.119,2.5,2.5,2.5h10.149c1.381,0,2.5-1.119,2.5-2.5
						s-1.119-2.5-2.5-2.5H89.312z"/>
				</g>
			</g>
		</g>
		<g>
			<g>
				<g>
					<path class="st1" d="M89.312,167.523c-1.381,0-2.5,1.119-2.5,2.5s1.119,2.5,2.5,2.5h20.299c1.381,0,2.5-1.119,2.5-2.5
						s-1.119-2.5-2.5-2.5H89.312z"/>
				</g>
			</g>
		</g>
		<g>
			<g>
				<g>
					<path class="st1" d="M89.312,178.087c-1.381,0-2.5,1.119-2.5,2.5s1.119,2.5,2.5,2.5h20.299c1.381,0,2.5-1.119,2.5-2.5
						s-1.119-2.5-2.5-2.5H89.312z"/>
				</g>
			</g>
		</g>
		<g>
			<g>
				<g>
					<path class="st1" d="M131.98,152.2v35.647c0,3.714,3.021,6.735,6.735,6.735h35.648c3.714,0,6.735-3.021,6.735-6.735V152.2
						c0-3.714-3.021-6.736-6.735-6.736h-35.648C135.001,145.464,131.98,148.485,131.98,152.2z M136.98,152.2
						c0-0.957,0.778-1.736,1.735-1.736h35.648c0.957,0,1.735,0.779,1.735,1.736v35.647c0,0.957-0.778,1.735-1.735,1.735h-35.648
						c-0.957,0-1.735-0.778-1.735-1.735V152.2z"/>
				</g>
			</g>
		</g>
		<g>
			<g>
				<g>
					<path class="st1" d="M143.89,159.46c0,1.381,1.119,2.5,2.5,2.5h10.149c1.381,0,2.5-1.119,2.5-2.5s-1.119-2.5-2.5-2.5H146.39
						C145.009,156.96,143.89,158.079,143.89,159.46z"/>
				</g>
			</g>
		</g>
		<g>
			<g>
				<g>
					<path class="st1" d="M143.89,170.023c0,1.381,1.119,2.5,2.5,2.5h20.298c1.381,0,2.5-1.119,2.5-2.5s-1.119-2.5-2.5-2.5H146.39
						C145.009,167.523,143.89,168.643,143.89,170.023z"/>
				</g>
			</g>
		</g>
		<g>
			<g>
				<g>
					<path class="st1" d="M143.89,180.587c0,1.381,1.119,2.5,2.5,2.5h20.298c1.381,0,2.5-1.119,2.5-2.5s-1.119-2.5-2.5-2.5H146.39
						C145.009,178.087,143.89,179.206,143.89,180.587z"/>
				</g>
			</g>
		</g>
	</g>
	<g>
		<g>
			<g>
				<g>
					<path class="st2" d="M67.543,204.198h120.913c4.246,0,7.701-3.455,7.701-7.701v-75.183h5.734c4.246,0,7.701-3.455,7.701-7.701
						V94.177c0-2.472-1.198-4.809-3.204-6.251c0,0,0,0,0,0l-73.891-53.141c-2.689-1.934-6.303-1.934-8.992,0L49.612,87.926
						c-2.006,1.443-3.204,3.78-3.204,6.251v19.437c0,4.246,3.455,7.701,7.701,7.701h5.734v75.183
						C59.843,200.744,63.297,204.198,67.543,204.198z M54.109,116.314c-1.489,0-2.701-1.211-2.701-2.701V94.177
						c0-0.867,0.42-1.687,1.124-2.192l73.892-53.141c0.471-0.339,1.023-0.509,1.576-0.509c0.552,0,1.105,0.169,1.577,0.509
						l73.891,53.141c0.704,0.506,1.124,1.326,1.124,2.192v19.437c0,1.489-1.211,2.701-2.701,2.701h-8.234
						c-1.381,0-2.5,1.119-2.5,2.5v77.683c0,1.489-1.211,2.701-2.701,2.701H67.543c-1.489,0-2.701-1.211-2.701-2.701v-77.683
						c0-1.381-1.119-2.5-2.5-2.5H54.109z"/>
				</g>
			</g>
		</g>
		<g>
			<g>
				<g>
					<g>
						<path class="st3" d="M67.543,204.198h120.913c4.246,0,7.701-3.455,7.701-7.701v-75.183h5.734c4.246,0,7.701-3.455,7.701-7.701
							V94.177c0-2.472-1.198-4.809-3.204-6.251c0,0,0,0,0,0l-73.891-53.141c-1.345-0.967-2.921-1.45-4.496-1.45
							s-3.151,0.483-4.495,1.45L49.612,87.926c-2.006,1.443-3.204,3.78-3.204,6.251v19.437c0,4.246,3.455,7.701,7.701,7.701h5.734
							v75.183C59.843,200.744,63.297,204.198,67.543,204.198z M54.109,119.814c-3.419,0-6.201-2.782-6.201-6.201V94.177
							c0-1.99,0.964-3.872,2.58-5.034l73.892-53.142c1.062-0.764,2.314-1.168,3.62-1.168c1.306,0,2.558,0.404,3.62,1.168
							l73.892,53.142c1.615,1.162,2.58,3.043,2.58,5.034v19.437c0,3.419-2.782,6.201-6.201,6.201h-5.734c-0.828,0-1.5,0.672-1.5,1.5
							v75.183c0,3.419-2.782,6.201-6.201,6.201H67.543c-3.419,0-6.201-2.782-6.201-6.201v-75.183c0-0.828-0.672-1.5-1.5-1.5H54.109z
							"/>
						<path class="st3" d="M63.343,118.814v77.683c0,2.316,1.884,4.201,4.201,4.201h120.913c2.316,0,4.201-1.884,4.201-4.201
							v-77.683c0-0.551,0.449-1,1-1h8.234c2.316,0,4.201-1.884,4.201-4.201V94.177c0-1.349-0.654-2.624-1.748-3.41l-73.891-53.141
							c-0.719-0.518-1.568-0.791-2.453-0.791c-0.886,0-1.734,0.274-2.452,0.791L51.656,90.767c-1.095,0.787-1.748,2.062-1.748,3.41
							v19.437c0,2.316,1.884,4.201,4.201,4.201h8.234C62.894,117.814,63.343,118.263,63.343,118.814z M51.408,113.614V94.177
							c0-0.867,0.42-1.687,1.124-2.192l73.892-53.141c0.471-0.339,1.023-0.509,1.576-0.509c0.552,0,1.105,0.169,1.577,0.509
							l73.891,53.141c0.704,0.506,1.124,1.326,1.124,2.192v19.437c0,1.489-1.211,2.701-2.701,2.701h-8.234
							c-1.381,0-2.5,1.119-2.5,2.5v77.683c0,1.489-1.211,2.701-2.701,2.701H67.543c-1.489,0-2.701-1.211-2.701-2.701v-77.683
							c0-1.381-1.119-2.5-2.5-2.5h-8.234C52.62,116.314,51.408,115.103,51.408,113.614z"/>
					</g>
				</g>
			</g>
		</g>
		<g>
			<g>
				<g>
					<g>
						<g>
							<path class="st8" d="M81.637,85.555c-3.714,0-6.735,3.021-6.735,6.735v35.647c0,3.714,3.021,6.736,6.735,6.736h35.648
								c3.714,0,6.735-3.021,6.735-6.736V92.29c0-3.714-3.021-6.735-6.735-6.735H81.637z M119.02,92.29v35.647
								c0,0.957-0.778,1.736-1.735,1.736H81.637c-0.957,0-1.735-0.779-1.735-1.736V92.29c0-0.957,0.778-1.735,1.735-1.735h35.648
								C118.242,90.555,119.02,91.333,119.02,92.29z"/>
						</g>
					</g>
				</g>
				<g>
					<g>
						<g>
							<path class="st4" d="M89.312,97.05c-1.381,0-2.5,1.119-2.5,2.5s1.119,2.5,2.5,2.5h10.149c1.381,0,2.5-1.119,2.5-2.5
								s-1.119-2.5-2.5-2.5H89.312z"/>
						</g>
					</g>
				</g>
				<g>
					<g>
						<g>
							<path class="st4" d="M89.312,107.614c-1.381,0-2.5,1.119-2.5,2.5s1.119,2.5,2.5,2.5h20.299c1.381,0,2.5-1.119,2.5-2.5
								s-1.119-2.5-2.5-2.5H89.312z"/>
						</g>
					</g>
				</g>
				<g>
					<g>
						<g>
							<path class="st4" d="M89.312,118.177c-1.381,0-2.5,1.119-2.5,2.5s1.119,2.5,2.5,2.5h20.299c1.381,0,2.5-1.119,2.5-2.5
								s-1.119-2.5-2.5-2.5H89.312z"/>
						</g>
					</g>
				</g>
			</g>
			<g>
				<g>
					<g>
						<g>
							<path class="st8" d="M131.98,92.29v35.647c0,3.714,3.021,6.736,6.735,6.736h35.648c3.714,0,6.735-3.021,6.735-6.736V92.29
								c0-3.714-3.021-6.735-6.735-6.735h-35.648C135.001,85.555,131.98,88.576,131.98,92.29z M136.98,92.29
								c0-0.957,0.778-1.735,1.735-1.735h35.648c0.957,0,1.735,0.778,1.735,1.735v35.647c0,0.957-0.778,1.736-1.735,1.736h-35.648
								c-0.957,0-1.735-0.779-1.735-1.736V92.29z"/>
						</g>
					</g>
				</g>
				<g>
					<g>
						<g>
							<path class="st4" d="M143.89,99.55c0,1.381,1.119,2.5,2.5,2.5h10.149c1.381,0,2.5-1.119,2.5-2.5s-1.119-2.5-2.5-2.5H146.39
								C145.009,97.05,143.89,98.169,143.89,99.55z"/>
						</g>
					</g>
				</g>
				<g>
					<g>
						<g>
							<path class="st4" d="M143.89,110.114c0,1.381,1.119,2.5,2.5,2.5h20.298c1.381,0,2.5-1.119,2.5-2.5s-1.119-2.5-2.5-2.5H146.39
								C145.009,107.614,143.89,108.733,143.89,110.114z"/>
						</g>
					</g>
				</g>
				<g>
					<g>
						<g>
							<path class="st4" d="M143.89,120.677c0,1.381,1.119,2.5,2.5,2.5h20.298c1.381,0,2.5-1.119,2.5-2.5s-1.119-2.5-2.5-2.5H146.39
								C145.009,118.177,143.89,119.296,143.89,120.677z"/>
						</g>
					</g>
				</g>
			</g>
		</g>
		<g>
			<g>
				<g>
					<g>
						<g>
							<path class="st8" d="M81.637,141.464c-3.714,0-6.735,3.021-6.735,6.736v35.647c0,3.714,3.021,6.735,6.735,6.735h35.648
								c3.714,0,6.735-3.021,6.735-6.735V148.2c0-3.714-3.021-6.736-6.735-6.736H81.637z M119.02,148.2v35.647
								c0,0.957-0.778,1.735-1.735,1.735H81.637c-0.957,0-1.735-0.778-1.735-1.735V148.2c0-0.957,0.778-1.736,1.735-1.736h35.648
								C118.242,146.464,119.02,147.243,119.02,148.2z"/>
						</g>
					</g>
				</g>
				<g>
					<g>
						<g>
							<path class="st4" d="M89.312,152.96c-1.381,0-2.5,1.119-2.5,2.5s1.119,2.5,2.5,2.5h10.149c1.381,0,2.5-1.119,2.5-2.5
								s-1.119-2.5-2.5-2.5H89.312z"/>
						</g>
					</g>
				</g>
				<g>
					<g>
						<g>
							<path class="st4" d="M89.312,163.523c-1.381,0-2.5,1.119-2.5,2.5s1.119,2.5,2.5,2.5h20.299c1.381,0,2.5-1.119,2.5-2.5
								s-1.119-2.5-2.5-2.5H89.312z"/>
						</g>
					</g>
				</g>
				<g>
					<g>
						<g>
							<path class="st4" d="M89.312,174.087c-1.381,0-2.5,1.119-2.5,2.5s1.119,2.5,2.5,2.5h20.299c1.381,0,2.5-1.119,2.5-2.5
								s-1.119-2.5-2.5-2.5H89.312z"/>
						</g>
					</g>
				</g>
			</g>
			<g>
				<g>
					<g>
						<g>
							<path class="st8" d="M131.98,148.2v35.647c0,3.714,3.021,6.735,6.735,6.735h35.648c3.714,0,6.735-3.021,6.735-6.735V148.2
								c0-3.714-3.021-6.736-6.735-6.736h-35.648C135.001,141.464,131.98,144.485,131.98,148.2z M136.98,148.2
								c0-0.957,0.778-1.736,1.735-1.736h35.648c0.957,0,1.735,0.779,1.735,1.736v35.647c0,0.957-0.778,1.735-1.735,1.735h-35.648
								c-0.957,0-1.735-0.778-1.735-1.735V148.2z"/>
						</g>
					</g>
				</g>
				<g>
					<g>
						<g>
							<path class="st4" d="M143.89,155.46c0,1.381,1.119,2.5,2.5,2.5h10.149c1.381,0,2.5-1.119,2.5-2.5s-1.119-2.5-2.5-2.5H146.39
								C145.009,152.96,143.89,154.079,143.89,155.46z"/>
						</g>
					</g>
				</g>
				<g>
					<g>
						<g>
							<path class="st4" d="M143.89,166.023c0,1.381,1.119,2.5,2.5,2.5h20.298c1.381,0,2.5-1.119,2.5-2.5s-1.119-2.5-2.5-2.5H146.39
								C145.009,163.523,143.89,164.643,143.89,166.023z"/>
						</g>
					</g>
				</g>
				<g>
					<g>
						<g>
							<path class="st4" d="M143.89,176.587c0,1.381,1.119,2.5,2.5,2.5h20.298c1.381,0,2.5-1.119,2.5-2.5s-1.119-2.5-2.5-2.5H146.39
								C145.009,174.087,143.89,175.206,143.89,176.587z"/>
						</g>
					</g>
				</g>
			</g>
		</g>
		<g>
			<g>
				<g>
					<g>
						<path class="st9" d="M81.637,89.055c-1.784,0-3.235,1.451-3.235,3.235v35.647c0,1.784,1.451,3.236,3.235,3.236h35.648
							c1.784,0,3.235-1.452,3.235-3.236V92.29c0-1.784-1.451-3.235-3.235-3.235H81.637z M119.02,92.29v35.647
							c0,0.957-0.778,1.736-1.735,1.736H81.637c-0.957,0-1.735-0.779-1.735-1.736V92.29c0-0.957,0.778-1.735,1.735-1.735h35.648
							C118.242,90.555,119.02,91.333,119.02,92.29z"/>
						<path class="st9" d="M81.637,85.555c-3.714,0-6.735,3.021-6.735,6.735v35.647c0,3.714,3.021,6.736,6.735,6.736h35.648
							c3.714,0,6.735-3.021,6.735-6.736V92.29c0-3.714-3.021-6.735-6.735-6.735H81.637z M122.52,92.29v35.647
							c0,2.887-2.349,5.236-5.235,5.236H81.637c-2.887,0-5.235-2.349-5.235-5.236V92.29c0-2.887,2.349-5.235,5.235-5.235h35.648
							C120.171,87.055,122.52,89.403,122.52,92.29z"/>
					</g>
				</g>
			</g>
			<g>
				<g>
					<g>
						<path class="st5" d="M89.312,97.05c-1.381,0-2.5,1.119-2.5,2.5s1.119,2.5,2.5,2.5h10.149c1.381,0,2.5-1.119,2.5-2.5
							s-1.119-2.5-2.5-2.5H89.312z M100.461,99.55c0,0.551-0.449,1-1,1H89.312c-0.551,0-1-0.449-1-1s0.449-1,1-1h10.149
							C100.012,98.55,100.461,98.999,100.461,99.55z"/>
					</g>
				</g>
			</g>
			<g>
				<g>
					<g>
						<path class="st5" d="M89.312,107.614c-1.381,0-2.5,1.119-2.5,2.5s1.119,2.5,2.5,2.5h20.299c1.381,0,2.5-1.119,2.5-2.5
							s-1.119-2.5-2.5-2.5H89.312z M110.61,110.114c0,0.551-0.449,1-1,1H89.312c-0.551,0-1-0.449-1-1s0.449-1,1-1h20.299
							C110.162,109.114,110.61,109.562,110.61,110.114z"/>
					</g>
				</g>
			</g>
			<g>
				<g>
					<g>
						<path class="st5" d="M89.312,118.177c-1.381,0-2.5,1.119-2.5,2.5s1.119,2.5,2.5,2.5h20.299c1.381,0,2.5-1.119,2.5-2.5
							s-1.119-2.5-2.5-2.5H89.312z M110.61,120.677c0,0.551-0.449,1-1,1H89.312c-0.551,0-1-0.449-1-1s0.449-1,1-1h20.299
							C110.162,119.677,110.61,120.126,110.61,120.677z"/>
					</g>
				</g>
			</g>
			<g>
				<g>
					<g>
						<path class="st9" d="M138.715,131.173h35.648c1.784,0,3.235-1.452,3.235-3.236V92.29c0-1.784-1.451-3.235-3.235-3.235h-35.648
							c-1.784,0-3.235,1.451-3.235,3.235v35.647C135.48,129.722,136.931,131.173,138.715,131.173z M136.98,92.29
							c0-0.957,0.778-1.735,1.735-1.735h35.648c0.957,0,1.735,0.778,1.735,1.735v35.647c0,0.957-0.778,1.736-1.735,1.736h-35.648
							c-0.957,0-1.735-0.779-1.735-1.736V92.29z"/>
						<path class="st9" d="M131.98,92.29v35.647c0,3.714,3.021,6.736,6.735,6.736h35.648c3.714,0,6.735-3.021,6.735-6.736V92.29
							c0-3.714-3.021-6.735-6.735-6.735h-35.648C135.001,85.555,131.98,88.576,131.98,92.29z M138.715,87.055h35.648
							c2.887,0,5.235,2.349,5.235,5.235v35.647c0,2.887-2.349,5.236-5.235,5.236h-35.648c-2.887,0-5.235-2.349-5.235-5.236V92.29
							C133.48,89.403,135.829,87.055,138.715,87.055z"/>
					</g>
				</g>
			</g>
			<g>
				<g>
					<g>
						<path class="st5" d="M143.89,99.55c0,1.381,1.119,2.5,2.5,2.5h10.149c1.381,0,2.5-1.119,2.5-2.5s-1.119-2.5-2.5-2.5H146.39
							C145.009,97.05,143.89,98.169,143.89,99.55z M146.39,98.55h10.149c0.551,0,1,0.449,1,1s-0.449,1-1,1H146.39
							c-0.551,0-1-0.449-1-1S145.839,98.55,146.39,98.55z"/>
					</g>
				</g>
			</g>
			<g>
				<g>
					<g>
						<path class="st5" d="M143.89,110.114c0,1.381,1.119,2.5,2.5,2.5h20.298c1.381,0,2.5-1.119,2.5-2.5s-1.119-2.5-2.5-2.5H146.39
							C145.009,107.614,143.89,108.733,143.89,110.114z M146.39,109.114h20.298c0.551,0,1,0.449,1,1s-0.449,1-1,1H146.39
							c-0.551,0-1-0.449-1-1S145.839,109.114,146.39,109.114z"/>
					</g>
				</g>
			</g>
			<g>
				<g>
					<g>
						<path class="st5" d="M143.89,120.677c0,1.381,1.119,2.5,2.5,2.5h20.298c1.381,0,2.5-1.119,2.5-2.5s-1.119-2.5-2.5-2.5H146.39
							C145.009,118.177,143.89,119.296,143.89,120.677z M146.39,119.677h20.298c0.551,0,1,0.449,1,1s-0.449,1-1,1H146.39
							c-0.551,0-1-0.449-1-1S145.839,119.677,146.39,119.677z"/>
					</g>
				</g>
			</g>
			<g>
				<g>
					<g>
						<path class="st9" d="M81.637,144.964c-1.784,0-3.235,1.452-3.235,3.236v35.647c0,1.784,1.451,3.235,3.235,3.235h35.648
							c1.784,0,3.235-1.451,3.235-3.235V148.2c0-1.784-1.451-3.236-3.235-3.236H81.637z M119.02,148.2v35.647
							c0,0.957-0.778,1.735-1.735,1.735H81.637c-0.957,0-1.735-0.778-1.735-1.735V148.2c0-0.957,0.778-1.736,1.735-1.736h35.648
							C118.242,146.464,119.02,147.243,119.02,148.2z"/>
						<path class="st9" d="M81.637,141.464c-3.714,0-6.735,3.021-6.735,6.736v35.647c0,3.714,3.021,6.735,6.735,6.735h35.648
							c3.714,0,6.735-3.021,6.735-6.735V148.2c0-3.714-3.021-6.736-6.735-6.736H81.637z M122.52,148.2v35.647
							c0,2.887-2.349,5.235-5.235,5.235H81.637c-2.887,0-5.235-2.349-5.235-5.235V148.2c0-2.887,2.349-5.236,5.235-5.236h35.648
							C120.171,142.964,122.52,145.313,122.52,148.2z"/>
					</g>
				</g>
			</g>
			<g>
				<g>
					<g>
						<path class="st5" d="M89.312,152.96c-1.381,0-2.5,1.119-2.5,2.5s1.119,2.5,2.5,2.5h10.149c1.381,0,2.5-1.119,2.5-2.5
							s-1.119-2.5-2.5-2.5H89.312z M100.461,155.46c0,0.551-0.449,1-1,1H89.312c-0.551,0-1-0.449-1-1s0.449-1,1-1h10.149
							C100.012,154.46,100.461,154.909,100.461,155.46z"/>
					</g>
				</g>
			</g>
			<g>
				<g>
					<g>
						<path class="st5" d="M89.312,163.523c-1.381,0-2.5,1.119-2.5,2.5s1.119,2.5,2.5,2.5h20.299c1.381,0,2.5-1.119,2.5-2.5
							s-1.119-2.5-2.5-2.5H89.312z M110.61,166.023c0,0.551-0.449,1-1,1H89.312c-0.551,0-1-0.449-1-1s0.449-1,1-1h20.299
							C110.162,165.023,110.61,165.472,110.61,166.023z"/>
					</g>
				</g>
			</g>
			<g>
				<g>
					<g>
						<path class="st5" d="M89.312,174.087c-1.381,0-2.5,1.119-2.5,2.5s1.119,2.5,2.5,2.5h20.299c1.381,0,2.5-1.119,2.5-2.5
							s-1.119-2.5-2.5-2.5H89.312z M110.61,176.587c0,0.551-0.449,1-1,1H89.312c-0.551,0-1-0.449-1-1s0.449-1,1-1h20.299
							C110.162,175.587,110.61,176.036,110.61,176.587z"/>
					</g>
				</g>
			</g>
			<g>
				<g>
					<g>
						<path class="st9" d="M131.98,148.2v35.647c0,3.714,3.021,6.735,6.735,6.735h35.648c3.714,0,6.735-3.021,6.735-6.735V148.2
							c0-3.714-3.021-6.736-6.735-6.736h-35.648C135.001,141.464,131.98,144.485,131.98,148.2z M138.715,142.964h35.648
							c2.887,0,5.235,2.349,5.235,5.236v35.647c0,2.887-2.349,5.235-5.235,5.235h-35.648c-2.887,0-5.235-2.349-5.235-5.235V148.2
							C133.48,145.313,135.829,142.964,138.715,142.964z"/>
						<path class="st9" d="M138.715,187.083h35.648c1.784,0,3.235-1.451,3.235-3.235V148.2c0-1.784-1.451-3.236-3.235-3.236h-35.648
							c-1.784,0-3.235,1.452-3.235,3.236v35.647C135.48,185.631,136.931,187.083,138.715,187.083z M136.98,148.2
							c0-0.957,0.778-1.736,1.735-1.736h35.648c0.957,0,1.735,0.779,1.735,1.736v35.647c0,0.957-0.778,1.735-1.735,1.735h-35.648
							c-0.957,0-1.735-0.778-1.735-1.735V148.2z"/>
					</g>
				</g>
			</g>
			<g>
				<g>
					<g>
						<path class="st5" d="M143.89,155.46c0,1.381,1.119,2.5,2.5,2.5h10.149c1.381,0,2.5-1.119,2.5-2.5s-1.119-2.5-2.5-2.5H146.39
							C145.009,152.96,143.89,154.079,143.89,155.46z M146.39,154.46h10.149c0.551,0,1,0.449,1,1s-0.449,1-1,1H146.39
							c-0.551,0-1-0.449-1-1S145.839,154.46,146.39,154.46z"/>
					</g>
				</g>
			</g>
			<g>
				<g>
					<g>
						<path class="st5" d="M143.89,166.023c0,1.381,1.119,2.5,2.5,2.5h20.298c1.381,0,2.5-1.119,2.5-2.5s-1.119-2.5-2.5-2.5H146.39
							C145.009,163.523,143.89,164.643,143.89,166.023z M146.39,165.023h20.298c0.551,0,1,0.449,1,1s-0.449,1-1,1H146.39
							c-0.551,0-1-0.449-1-1S145.839,165.023,146.39,165.023z"/>
					</g>
				</g>
			</g>
			<g>
				<g>
					<g>
						<path class="st5" d="M143.89,176.587c0,1.381,1.119,2.5,2.5,2.5h20.298c1.381,0,2.5-1.119,2.5-2.5s-1.119-2.5-2.5-2.5H146.39
							C145.009,174.087,143.89,175.206,143.89,176.587z M146.39,175.587h20.298c0.551,0,1,0.449,1,1s-0.449,1-1,1H146.39
							c-0.551,0-1-0.449-1-1S145.839,175.587,146.39,175.587z"/>
					</g>
				</g>
			</g>
		</g>
	</g>
</g>
</svg>
